<svg width="80" height="24" viewBox="0 0 80 24" fill="none" xmlns="http://www.w3.org/2000/svg">
<path fill-rule="evenodd" clip-rule="evenodd" d="M11.661 11.4166C12.6063 11.4166 13.3395 10.6839 13.3395 9.73901C13.3395 8.7942 12.6063 8.0614 11.661 8.0614C10.7156 8.0614 9.98245 8.7942 9.98245 9.73901C9.98245 10.6839 10.7156 11.4166 11.661 11.4166Z" fill="white"/>
<path fill-rule="evenodd" clip-rule="evenodd" d="M9.84738 17.9728H13.4745L12.7028 11.9759C12.124 12.1495 11.1979 12.1495 10.6191 11.9759L9.84738 17.9728Z" fill="white"/>
<path fill-rule="evenodd" clip-rule="evenodd" d="M4.86943 18.2285C7.31965 18.2285 8.80521 16.9381 8.80521 14.9242C8.80521 13.5165 7.95632 12.5584 6.20065 12.1674L4.48352 11.7763C3.82759 11.6199 3.48031 11.4048 3.48031 11.0137C3.48031 10.6227 3.80832 10.3686 4.54142 10.3686C5.42893 10.3686 6.35498 10.7987 6.99164 11.3853L8.43866 9.23458C7.7441 8.60889 6.31635 8.0614 4.54142 8.0614C2.24552 8.0614 0.702071 9.21496 0.702071 11.1702C0.702071 12.5975 1.49315 13.6337 3.17166 14.0248L4.8887 14.4354C5.73758 14.6309 6.0077 14.8851 6.0077 15.2175C6.0077 15.6477 5.66042 15.8823 4.86943 15.8823C3.94338 15.8823 2.82438 15.4913 1.9175 14.7092L0.470581 16.8599C1.14587 17.4856 2.68932 18.2285 4.86943 18.2285Z" fill="white"/>
<path fill-rule="evenodd" clip-rule="evenodd" d="M15.1724 18.0331H18.0664V12.7735C18.0664 11.4831 18.6838 10.6815 19.8799 10.6815C21.0182 10.6815 21.6163 11.3462 21.6163 12.7735V18.0331H24.5103V12.0306C24.5103 9.4106 23.2177 8.0615 20.9989 8.0615C19.7256 8.0615 18.7609 8.56984 18.0664 9.567V8.94131C18.0664 8.51117 17.8156 8.25695 17.3912 8.25695H15.1724V18.0331Z" fill="white"/>
<path fill-rule="evenodd" clip-rule="evenodd" d="M31.1861 15.1785C29.9706 15.1785 28.9866 14.1814 28.9866 12.9104C28.9866 11.6395 29.9706 10.6424 31.1861 10.6424C32.498 10.6424 33.4434 11.6395 33.4434 12.9104C33.4434 14.1814 32.498 15.1785 31.1861 15.1785ZM34.0221 8.25695C33.5977 8.25695 33.3469 8.51117 33.3469 8.94131V9.52785C32.6909 8.5307 31.6491 8.0615 30.4144 8.0615C28.0799 8.0615 26.0541 10.134 26.0541 12.9104C26.0541 15.6868 28.0799 17.7593 30.4144 17.7593C31.6491 17.7593 32.6524 17.3683 33.3469 16.4884V17.1141C33.3469 18.4437 32.4787 19.4018 30.9931 19.4018C29.6619 19.4018 28.6393 18.8347 28.0028 18.2091L26.4979 20.4771C27.4625 21.357 29.0638 21.8653 30.9931 21.8653C33.8871 21.8653 36.2409 20.3989 36.2409 16.7231V8.25695H34.0221Z" fill="white"/>
<path fill-rule="evenodd" clip-rule="evenodd" d="M43.592 15.6477C42.2222 15.6477 41.161 14.6114 41.161 13.145C41.161 11.6786 42.2222 10.6423 43.592 10.6423C44.9425 10.6423 45.965 11.6786 45.965 13.145C45.965 14.6114 44.9425 15.6477 43.592 15.6477ZM44.3637 8.0614C43.0518 8.0614 41.9714 8.5306 41.2575 9.52785V8.94121C41.2575 8.51116 41.0067 8.25695 40.5822 8.25695H38.3636V21.6306H41.2575V16.9576C42.01 17.8374 43.0518 18.2285 44.3637 18.2285C46.8718 18.2285 48.8976 16.156 48.8976 13.145C48.8976 10.1339 46.8718 8.0614 44.3637 8.0614Z" fill="white"/>
<path fill-rule="evenodd" clip-rule="evenodd" d="M55.4382 15.6477C54.0877 15.6477 53.0652 14.6114 53.0652 13.145C53.0652 11.6786 54.0877 10.6423 55.4382 10.6423C56.808 10.6423 57.8692 11.6786 57.8692 13.145C57.8692 14.6114 56.808 15.6477 55.4382 15.6477ZM58.448 8.25695C58.0235 8.25695 57.7727 8.51116 57.7727 8.94121V9.52785C57.0588 8.5306 55.9784 8.0614 54.6665 8.0614C52.1584 8.0614 50.1326 10.1339 50.1326 13.145C50.1326 16.156 52.1584 18.2285 54.6665 18.2285C55.9784 18.2285 57.0588 17.7592 57.7727 16.7622V18.033H60.6666V8.25695H58.448Z" fill="white"/>
<path fill-rule="evenodd" clip-rule="evenodd" d="M66.532 18.2285C68.9822 18.2285 70.4678 16.9381 70.4678 14.9242C70.4678 13.5165 69.6189 12.5584 67.8632 12.1674L66.1461 11.7763C65.4902 11.6199 65.1429 11.4048 65.1429 11.0137C65.1429 10.6227 65.4709 10.3686 66.204 10.3686C67.0915 10.3686 68.0176 10.7987 68.6542 11.3853L70.1012 9.23458C69.4067 8.60889 67.9789 8.0614 66.204 8.0614C63.9081 8.0614 62.3647 9.21496 62.3647 11.1702C62.3647 12.5975 63.1557 13.6337 64.8342 14.0248L66.5513 14.4354C67.4002 14.6309 67.6703 14.8851 67.6703 15.2175C67.6703 15.6477 67.323 15.8823 66.532 15.8823C65.606 15.8823 64.487 15.4913 63.5802 14.7092L62.1332 16.8599C62.8085 17.4856 64.3519 18.2285 66.532 18.2285Z" fill="white"/>
<path fill-rule="evenodd" clip-rule="evenodd" d="M75.6773 18.2285C78.1274 18.2285 79.6131 16.9381 79.6131 14.9242C79.6131 13.5165 78.7642 12.5584 77.0085 12.1674L75.2914 11.7763C74.6355 11.6199 74.2882 11.4048 74.2882 11.0137C74.2882 10.6227 74.6162 10.3686 75.3493 10.3686C76.2368 10.3686 77.1628 10.7987 77.7995 11.3853L79.2465 9.23458C78.552 8.60889 77.1242 8.0614 75.3493 8.0614C73.0534 8.0614 71.5099 9.21496 71.5099 11.1702C71.5099 12.5975 72.301 13.6337 73.9794 14.0248L75.6966 14.4354C76.5455 14.6309 76.8156 14.8851 76.8156 15.2175C76.8156 15.6477 76.4683 15.8823 75.6773 15.8823C74.7513 15.8823 73.6323 15.4913 72.7254 14.7092L71.2785 16.8599C71.9538 17.4856 73.4972 18.2285 75.6773 18.2285Z" fill="white"/>
</svg>
